<svg width="42" height="42" viewBox="0 0 42 42" fill="none" xmlns="http://www.w3.org/2000/svg">
  <path opacity="0.15" fill-rule="evenodd" clip-rule="evenodd" d="M40.6377 19.814C40.4183 19.7228 40.1658 19.7732 39.9978 19.9416L38.2394 21.7057V9.71161C38.2394 9.38628 37.9766 9.12261 37.6523 9.12261H33.1413L34.7788 7.47985L34.7795 7.47906L36.3573 5.89617C36.6954 5.55704 36.8816 5.10591 36.8816 4.62624C36.8816 4.14658 36.6954 3.6956 36.3573 3.35631L34.5328 1.52591C34.1948 1.18677 33.7451 1 33.2669 1C32.7888 1 32.3392 1.18677 32.0011 1.52591L30.4225 3.10958L28.515 5.02322L24.4288 9.12254H6.2047V3.29564C6.2047 2.9703 5.94181 2.70665 5.61759 2.70665C3.07149 2.70681 1 4.7848 1 7.33924V32.3559C1 32.3994 1.005 32.4417 1.01391 32.4825C1.095 33.5664 1.56242 34.5734 2.3436 35.3379C3.1786 36.1549 4.28087 36.6048 5.44743 36.6048H23.3879L20.0091 39.9946C19.8412 40.163 19.791 40.4162 19.8818 40.6364C19.9727 40.8565 20.1868 41 20.4243 41H40.413C40.7372 41 41.0001 40.7364 41.0001 40.411V20.3582C41.0001 20.12 40.857 19.9052 40.6377 19.814ZM32.8315 2.35897C33.0715 2.11804 33.4626 2.11804 33.7026 2.35897L35.5272 4.18945C35.7673 4.4303 35.7673 4.82242 35.5272 5.06335L34.3638 6.23053L31.668 3.52615L32.8315 2.35897ZM30.8377 4.35913L33.5334 7.06343L32.4562 8.14417L29.7606 5.43987L30.8377 4.35913ZM18.3967 21.76L16.715 22.3556L15.5945 21.2315L16.1882 19.5444L18.3967 21.76ZM35.8293 30.1707L30.1707 35.8293C30.1077 35.8923 30.1523 36 30.2414 36H36V30.2414C36 30.1523 35.8923 30.1077 35.8293 30.1707ZM16 18.5L19.5 22L32.5 9L29 5.5L16 18.5Z" fill="#000000"/>
  <path d="M36.3998 29.2549C36.1804 29.1637 35.9279 29.2141 35.76 29.3825L29.3439 35.8193C29.176 35.9878 29.1257 36.2411 29.2167 36.4612C29.3075 36.6814 29.5217 36.8248 29.7591 36.8248H36.1752C36.4995 36.8248 36.7623 36.5611 36.7623 36.2358V29.799C36.7622 29.5609 36.6192 29.3461 36.3998 29.2549ZM31.1763 35.6469L35.5879 31.221V35.6469H31.1763Z" fill="#000000" stroke="#000000" stroke-width="0.25"/>
  <path d="M40.6377 19.814C40.4183 19.7228 40.1658 19.7732 39.9978 19.9416L38.2394 21.7057V9.71161C38.2394 9.38628 37.9766 9.12261 37.6523 9.12261H33.1413L34.7788 7.47985C34.7791 7.47962 34.7793 7.47929 34.7795 7.47906L36.3573 5.89617C36.6954 5.55704 36.8816 5.10591 36.8816 4.62624C36.8816 4.14658 36.6954 3.6956 36.3573 3.35631L34.5328 1.52591C34.1948 1.18677 33.7451 1 33.2669 1C32.7888 1 32.3392 1.18677 32.0011 1.52591L30.4225 3.10958L28.515 5.02322L24.4288 9.12254H6.2047V3.29564C6.2047 2.9703 5.94181 2.70665 5.61759 2.70665C3.07149 2.70681 1 4.7848 1 7.33924V32.3559C1 32.3994 1.005 32.4417 1.01391 32.4825C1.095 33.5664 1.56242 34.5734 2.3436 35.3379C3.1786 36.1549 4.28087 36.6048 5.44743 36.6048H23.3879L20.0091 39.9946C19.8412 40.163 19.791 40.4162 19.8818 40.6364C19.9727 40.8565 20.1868 41 20.4243 41H40.413C40.7372 41 41.0001 40.7364 41.0001 40.411V20.3582C41.0001 20.12 40.857 19.9052 40.6377 19.814ZM32.8315 2.35897C33.0715 2.11804 33.4626 2.11804 33.7026 2.35897L35.5272 4.18945C35.7673 4.4303 35.7673 4.82242 35.5272 5.06335L34.3638 6.23053L31.668 3.52615L32.8315 2.35897ZM30.8377 4.35913L33.5334 7.06343L32.4562 8.14417L29.7606 5.43987L30.8377 4.35913ZM39.826 26.9764H38.7428C38.4185 26.9764 38.1557 27.2401 38.1557 27.5654C38.1557 27.8908 38.4185 28.1544 38.7428 28.1544H39.826V29.9293H38.7428C38.4185 29.9293 38.1557 30.1931 38.1557 30.5184C38.1557 30.8437 38.4185 31.1075 38.7428 31.1075H39.826C40.1502 31.1075 40.413 30.8437 40.413 30.5184V27.5654C40.413 27.2401 40.1502 26.9764 39.826 26.9764ZM36.3998 29.2549C36.1804 29.1637 35.9279 29.2141 35.76 29.3825L29.3439 35.8193C29.176 35.9878 29.1257 36.2411 29.2167 36.4612C29.3075 36.6814 29.5217 36.8248 29.7591 36.8248H36.1752C36.4995 36.8248 36.7623 36.5611 36.7623 36.2358V29.799C36.7622 29.5609 36.6192 29.3461 36.3998 29.2549ZM31.1763 35.6469L35.5879 31.221V35.6469H31.1763Z" fill="#000000"/>
</svg>
