<svg width="42" height="32" viewBox="0 0 42 32" fill="none" xmlns="http://www.w3.org/2000/svg">
<path d="M1.5 6.89825C1.5 5.79369 2.39543 4.89825 3.5 4.89825H38.3C39.4046 4.89825 40.3 5.79369 40.3 6.89825V27.8871C40.3 28.9917 39.4046 29.8871 38.3 29.8871H24.2108C28.4393 28.5311 31.5 24.5686 31.5 19.8916C31.5 14.0952 26.799 9.39625 21 9.39625C15.201 9.39625 10.5 14.0952 10.5 19.8916C10.5 24.5686 13.5607 28.5311 17.7892 29.8871H3.5C2.39543 29.8871 1.5 28.9917 1.5 27.8871V6.89825ZM21 24.8894C23.7614 24.8894 26 22.6518 26 19.8916C26 17.1314 23.7614 14.8938 21 14.8938C18.2386 14.8938 16 17.1314 16 19.8916C16 22.6518 18.2386 24.8894 21 24.8894Z" fill="#000000"/>
<path d="M2.04688 21.5655C2.04688 21.8199 1.84039 22.0263 1.58594 22.0263C1.33149 22.0263 1.125 21.8199 1.125 21.5655V19.1966C1.125 18.942 1.33145 18.7359 1.58594 18.7359C1.84043 18.7359 2.04688 18.942 2.04688 19.1966V21.5655Z" fill="#000000" stroke="#000000" stroke-width="0.25"/>
<path d="M38.7448 4.72371H36.3178V4.44734C36.3178 3.66461 35.6806 3.02738 34.8972 3.02738H34.6484V2.31999C34.6484 1.53695 34.0109 0.900024 33.2278 0.900024H30.4285C29.6454 0.900024 29.0079 1.53695 29.0079 2.31999V3.02738H28.7591C27.9758 3.02738 27.3386 3.6643 27.3386 4.44734V4.72371H18.9984V4.11363C18.9984 3.3309 18.3612 2.69366 17.5778 2.69366H16.448C15.6649 2.69366 15.0274 3.33059 15.0274 4.11363V4.72371H13.6566V3.27934C13.6566 2.49661 13.0194 1.85938 12.236 1.85938H6.09828C5.31519 1.85938 4.67768 2.49661 4.67768 3.27934V4.72371H3.25525C2.01166 4.72371 1 5.73523 1 6.97797V16.646C1 16.9696 1.26245 17.2316 1.58594 17.2316C1.90943 17.2316 2.17188 16.9696 2.17188 16.646V11.0838H5.37867C5.63654 12.0276 6.50172 12.7237 7.5265 12.7237C8.55159 12.7237 9.41646 12.0276 9.67433 11.0838H14.3277C11.6247 13.1148 9.87331 16.3458 9.87331 19.9782C9.87331 22.363 10.6283 24.5745 11.9116 26.3874H2.17188V24.1161C2.17188 23.7925 1.90943 23.5304 1.58594 23.5304C1.26245 23.5304 1 23.7925 1 24.1161V27.7796C1 29.0226 2.01166 30.0339 3.25525 30.0339H16.2491C17.6907 30.7172 19.3014 31.1 21 31.1C22.6993 31.1 24.3103 30.7169 25.7522 30.033C25.7568 30.0333 25.7611 30.0339 25.7657 30.0339H38.7448C39.9884 30.0339 41.0001 29.0226 41.0001 27.7796V6.97797C41.0001 5.73523 39.9884 4.72371 38.7448 4.72371ZM30.1797 2.31999C30.1797 2.18303 30.2914 2.07138 30.4288 2.07138H33.2278C33.3649 2.07138 33.4766 2.18272 33.4766 2.31999V3.02738H30.1801V2.31999H30.1797ZM28.5104 4.44734C28.5104 4.31038 28.6221 4.19873 28.7595 4.19873H34.8972C35.0342 4.19873 35.1459 4.31038 35.1459 4.44734V4.72371H28.5107V4.44734H28.5104ZM16.1993 4.11363C16.1993 3.97667 16.311 3.86502 16.448 3.86502H17.5778C17.7151 3.86502 17.8265 3.97667 17.8265 4.11363V4.72371H16.1993V4.11363ZM5.84956 3.27934C5.84956 3.14238 5.96125 3.03073 6.09828 3.03073H12.2363C12.3733 3.03073 12.485 3.14238 12.485 3.27934V4.72371H5.84956V3.27934ZM7.5265 11.5523C6.94514 11.5523 6.47181 11.0795 6.47181 10.4982C6.47181 9.91703 6.94514 9.44391 7.5265 9.44391C8.10817 9.44391 8.58119 9.91703 8.58119 10.4982C8.58119 11.0795 8.10817 11.5523 7.5265 11.5523ZM9.67433 9.91246C9.41646 8.96866 8.55159 8.27256 7.5265 8.27256C6.50141 8.27256 5.63654 8.96866 5.37867 9.91246H2.17188V6.97797C2.17188 6.381 2.65802 5.89507 3.25525 5.89507H38.7448C39.3421 5.89507 39.8282 6.381 39.8282 6.97797V9.91246H28.4851V8.50059C28.4851 8.09222 28.6735 7.69676 28.9854 7.39673C29.2296 7.12734 29.7062 7.12734 29.9503 7.39673C30.2623 7.69676 30.4507 8.09222 30.4507 8.50059V8.79484H38.7448C39.5789 8.79484 40.3 9.54102 40.3 10.4982V27.7796C40.3 28.7169 39.5789 29.463 38.7448 29.463H3.25525C2.42112 29.463 1.70005 28.7169 1.70005 27.7796V24.1161H2.17188V22.0553H5.84956C7.8522 22.0553 9.9123 21.2541 11.9116 19.9782C13.5702 18.5261 15.3172 16.6868 17.0893 14.6452H30.9895C31.7885 15.5524 32.5956 16.5019 33.3464 17.4775H7.64215C8.03216 16.6343 8.55813 15.9041 9.1859 15.3293C9.37918 15.1456 9.66551 15.0952 9.9527 15.2064H30.7508C31.6041 15.2064 32.3466 15.6792 32.8559 16.4883H38.7448C39.8681 16.4883 40.3 15.8474 40.3 14.9386V11.0838H31.5648C31.5648 11.3261 31.4615 11.5631 31.2834 11.7057C30.8721 12.0654 30.384 12.3184 29.7888 12.4117H7.5265C6.94431 12.3184 6.45659 12.0654 6.04516 11.7057C5.86529 11.5631 5.76255 11.3261 5.76255 11.0838H4.6093V10.4982C4.6093 9.37141 5.27155 8.50814 6.09371 8.50814H9.67433C10.7861 8.50814 11.7881 8.96865 12.236 9.91438C12.5142 10.372 12.9034 10.6947 13.3251 10.6947H24.2093C24.751 10.6947 25.2181 10.372 25.4967 9.91438C25.9446 8.96865 26.9466 8.50814 28.0686 8.50814H31.5362C32.3808 8.50814 33.1035 9.36135 33.1035 10.4982C33.1035 11.5796 32.3101 12.372 31.2191 12.372H19.7916C19.1451 12.372 18.574 12.6478 18.2984 13.1461C18.0627 13.5716 17.8358 14.1238 17.7397 14.6654H11.5303C11.5574 14.3586 11.6527 14.042 11.8239 13.7638C12.0981 13.2659 12.5725 12.9587 13.1189 12.9587H22.9235C23.4871 12.9587 24.0361 13.273 24.3679 13.7638C24.5762 14.0751 24.8152 14.3548 25.0919 14.6376C25.5987 15.2903 26.4365 16.3879 27.5918 17.3401C28.274 17.8984 29.0125 18.519 29.7908 19.0308H38.7448V6.97797C38.7448 6.22802 38.029 5.54074 37.2961 5.54074H29.0079C28.5136 5.54074 28.0388 5.23753 27.8159 4.72371H16.1993V4.44734H16.448C16.6784 4.44734 16.9108 4.28053 16.9108 4.11363H16.1993C16.1993 4.11363 16.1993 4.11363 16.1993 4.11363H5.84956C5.73742 4.28053 5.50404 4.44734 5.3687 4.44734H4.67768V3.27934C4.67768 2.82288 4.7828 2.37868 5.02768 2.08655C5.26384 1.81051 5.69914 1.81051 5.96865 2.08655C6.21255 2.37868 6.31962 2.82288 6.31962 3.27934V4.44734H4.67768V4.72371H3.25525C2.75215 4.72371 2.29482 4.26353 2.29482 3.73286C2.29482 3.20262 2.75215 2.74242 3.25525 2.74242H38.7448C39.248 2.74242 39.7053 3.20262 39.7053 3.73286C39.7053 4.26353 39.248 4.72371 38.7448 4.72371Z" fill="#000000"/>
</svg>
